<svg width="157" height="157" fill="none" xmlns="http://www.w3.org/2000/svg"><path fill-rule="evenodd" clip-rule="evenodd" d="M29.72 127.28c26.94 26.94 70.619 26.94 97.56 0 26.94-26.941 26.94-70.62 0-97.56-26.941-26.94-70.62-26.94-97.56 0-26.94 26.94-26.94 70.619 0 97.56zm-6.728 6.728c30.656 30.656 80.36 30.656 111.016 0 30.656-30.656 30.656-80.36 0-111.016-30.656-30.656-80.36-30.656-111.016 0-30.656 30.656-30.656 80.36 0 111.016z" fill="silver"/><path fill-rule="evenodd" clip-rule="evenodd" d="M78.5 36.737a4.758 4.758 0 014.758 4.758v77.374a4.758 4.758 0 11-9.516 0V41.495a4.758 4.758 0 014.758-4.758z" fill="silver"/><path fill-rule="evenodd" clip-rule="evenodd" d="M35.055 80.182a4.758 4.758 0 014.758-4.758h77.374a4.758 4.758 0 110 9.515H39.813a4.758 4.758 0 01-4.758-4.757z" fill="silver"/></svg>