<svg width="157" height="157" viewBox="0 0 157 157" fill="none" xmlns="http://www.w3.org/2000/svg">
<path fill-rule="evenodd" clip-rule="evenodd" d="M78.5 157C121.854 157 157 121.854 157 78.5C157 35.1456 121.854 0 78.5 0C35.1457 0 0 35.1456 0 78.5C0 121.854 35.1457 157 78.5 157ZM84.3684 39.3684C84.3684 36.4035 81.9649 34 79 34C76.0351 34 73.6316 36.4035 73.6316 39.3684V73.6316H39.3684C36.4035 73.6316 34 76.0351 34 79C34 81.9649 36.4035 84.3684 39.3684 84.3684H73.6316V118.632C73.6316 121.596 76.0351 124 79 124C81.9649 124 84.3684 121.596 84.3684 118.632V84.3684H118.632C121.596 84.3684 124 81.9649 124 79C124 76.0351 121.596 73.6316 118.632 73.6316H84.3684V39.3684Z" fill="#E63946"/>
</svg>
