<svg width="157" height="157" fill="none" xmlns="http://www.w3.org/2000/svg"><circle cx="78.5" cy="78.5" r="78.5" fill="#E63946"/><path d="M109.247 77.947c-.114 7.012 2.077 9.44 3.187 9.777h1.487c-.85-1.574-2.45-5.731-2.054-9.777.496-5.057 5.879-3.362 5.454-12.305-.425-8.934-3.4-11.293-4.887-12.642.496 4.214 1.487 2.21 1.487 12.642 0 7.098-4.533 3.54-4.674 12.305zM117.348 84.914c-.093 4.09 1.707 5.507 2.618 5.703h1.222c-.698-.918-2.013-3.343-1.687-5.703.407-2.95 4.829-1.96 4.479-7.178-.349-5.211-2.792-6.588-4.014-7.374.407 2.458 1.222 1.289 1.222 7.374 0 4.14-3.724 2.065-3.84 7.178zM58.323 70.017l-19.407-9.05a1.736 1.736 0 00-2.307.84l-2.446 5.246c-.405.869-.03 1.902.84 2.307l19.407 9.05 3.913-8.393zM58.081 80.121l3.913-8.392 43.796 20.423-3.913 8.392-43.796-20.423zM111.843 105.191l-5.245-2.446 3.913-8.392 5.245 2.446a1.737 1.737 0 01.84 2.307l-2.446 5.245a1.736 1.736 0 01-2.307.84z" fill="#F1FAEE"/></svg>