<svg width="157" height="157" fill="none" xmlns="http://www.w3.org/2000/svg"><circle cx="78.5" cy="78.5" r="78.5" fill="#51B341"/><path d="M74.583 98.034c1.22-.038 2.83.173 4.866.772C92.008 102.5 112.736 99.88 124 73.078c-27.87-7.6-42.752 7.265-47.618 19.509-.103.26-.12.472-.224.715 12.077-12.232 33.774-18.606 44.396-18.788-23.993 2.406-37.64 15.4-43.986 21.444-.636.606-1.492 1.628-1.985 2.076z" fill="#F1FAEE"/><path d="M73.656 92.669C60.57 92.95 37.866 84.815 34 56c28.888-.05 40.662 24.213 42.158 37.302-3.824-18.664-28.782-30.814-39.376-34.825C58.654 68.9 70.803 84.38 73.656 92.67z" fill="#F1FAEE"/></svg>