<svg width="157" height="157" fill="none" xmlns="http://www.w3.org/2000/svg"><circle cx="78.5" cy="78.5" r="78.5" fill="#E63946"/><path d="M65.74 61.778L41.806 86.091c-8.537 8.672-8.537 22.733 0 31.405a21.62 21.62 0 0030.915 0l23.934-24.313L65.74 61.778z" fill="#F1FAEE"/><path fill-rule="evenodd" clip-rule="evenodd" d="M93.663 92.17l21.94-22.288c7.435-7.553 7.435-19.799 0-27.352a18.83 18.83 0 00-26.926 0l-21.94 22.287L93.663 92.17zm23.934-20.261c8.537-8.673 8.537-22.733 0-31.405a21.62 21.62 0 00-30.914 0L62.748 64.817l30.915 31.405 23.934-24.313z" fill="#F1FAEE"/><path fill-rule="evenodd" clip-rule="evenodd" d="M102.62 39.316c4.481-.028 8.342 2.046 11.238 4.987.413.42.413 1.1 0 1.52-.413.42-1.083.42-1.496 0-2.59-2.631-5.934-4.382-9.73-4.358-3.788.023-8.211 1.815-12.958 6.637-.413.42-1.083.42-1.496 0a1.087 1.087 0 010-1.52c5.027-5.106 9.953-7.239 14.442-7.266z" fill="#F1FAEE"/><path d="M83.957 43.43a28.943 28.943 0 00-41.386 0c-11.428 11.61-11.428 30.432 0 42.042l6.638-6.743a2.836 2.836 0 010-3.966L59.36 64.451l-9.76-9.915a2.836 2.836 0 010-3.967 2.73 2.73 0 013.904 0l9.76 9.916 9.761-9.916a2.73 2.73 0 013.904 0l7.028-7.139z" fill="#F1FAEE"/></svg>