<svg width="157" height="157" fill="none" xmlns="http://www.w3.org/2000/svg"><circle cx="78.5" cy="78.5" r="78.5" fill="#E63946"/><path d="M80.036 48c-23.007 0-38.02 14.337-41.433 20.028 17.467 3.004 60.524 2.503 82.865 0C118.056 62.338 103.043 48 80.036 48zM49.232 107.797c-8.8-.757-11.366-10.717-11.55-15.603 20.69 5.346 63.69 4.374 81.945 0-.184 4.886-2.75 14.846-11.55 15.603-10.999.946-16.773 1.891-29.422 1.891-12.65 0-18.424-.945-29.423-1.891zM37.688 72.542C35.738 72.246 34 74.347 34 77.054v5.43c0 2.21 1.167 4.078 2.756 4.353 6.703 1.16 24.605 3.938 42.244 3.938s35.541-2.779 42.244-3.938c1.589-.275 2.756-2.142 2.756-4.353v-5.43c0-2.707-1.739-4.808-3.688-4.512-2.637.401-10.374 1.039-11.932 1.425-.617.152-.763 1.553-.733 2.989.007.316.014.67.014 1.075 0 .898-.105 1.472-.187 1.92-.145.786-.217 1.182.48 2.263 1.094 1.697-.858 2.786-2.039.955-.429-.664-.626-1.396-.791-2.01-.29-1.079-.483-1.792-1.66-1.133-1.847 1.036-2.499 1.178-3.383.482-.478-.516-.59-1.935-.59-3.044 0-1.308-1.128-2.64-1.97-2.707-.842-.067-11.617.488-18.521.488-20.674 0-34.974-1.74-41.312-2.703z" fill="#F1FAEE"/></svg>