<svg width="157" height="157" viewBox="0 0 157 157" fill="none" xmlns="http://www.w3.org/2000/svg">
<path fill-rule="evenodd" clip-rule="evenodd" d="M134.008 134.008C164.664 103.352 164.664 53.6483 134.008 22.9921C103.352 -7.66404 53.6483 -7.66406 22.9921 22.9921C-7.66407 53.6483 -7.66407 103.352 22.9921 134.008C53.6482 164.664 103.352 164.664 134.008 134.008ZM54.9794 46.6802C52.8829 44.5837 49.4838 44.5837 47.3873 46.6802C45.2908 48.7767 45.2908 52.1758 47.3873 54.2723L71.615 78.5L47.3873 102.728C45.2908 104.824 45.2908 108.223 47.3873 110.32C49.4838 112.416 52.8829 112.416 54.9794 110.32L79.2071 86.0921L103.435 110.32C105.531 112.416 108.93 112.416 111.027 110.32C113.123 108.223 113.123 104.824 111.027 102.728L86.7992 78.5L111.027 54.2723C113.123 52.1758 113.123 48.7767 111.027 46.6802C108.93 44.5837 105.531 44.5837 103.435 46.6802L79.2071 70.9079L54.9794 46.6802Z" fill="#C0C0C0"/>
</svg>
