<svg width="157" height="157" fill="none" xmlns="http://www.w3.org/2000/svg"><circle cx="78.5" cy="78.5" r="78.5" fill="#E63946"/><path d="M71.993 44.816c-.154 4.446 2.822 5.985 4.33 6.198h2.02c-1.154-.997-3.329-3.633-2.79-6.198.674-3.206 7.987-2.131 7.409-7.801-.577-5.664-4.619-7.16-6.64-8.015.674 2.672 2.021 1.4 2.021 8.015 0 4.5-6.158 2.244-6.35 7.801zM88.18 48.682c-.171 3.53 3.155 4.753 4.84 4.922h2.258c-1.29-.792-3.72-2.885-3.119-4.922.753-2.546 8.927-1.692 8.281-6.195-.645-4.498-5.162-5.686-7.42-6.365.753 2.122 2.258 1.113 2.258 6.365 0 3.573-6.882 1.782-7.097 6.195zM53.864 48.682c-.172 3.53 3.155 4.753 4.84 4.922h2.258c-1.29-.792-3.721-2.885-3.119-4.922.753-2.546 8.926-1.692 8.28-6.195-.645-4.498-5.161-5.686-7.42-6.365.753 2.122 2.259 1.113 2.259 6.365 0 3.573-6.883 1.782-7.098 6.195z" fill="#F1FAEE"/><rect x="48.03" y="109.288" width="57.626" height="9.712" rx="4.856" fill="#F1FAEE"/><path d="M63.608 105.403c-1.132 0-2.24-.359-3.102-1.094-8.369-7.147-14.294-19.76-15.49-34.498-.232-2.861 2.112-5.2 4.982-5.2h52.822c2.87 0 5.215 2.339 4.982 5.2-1.196 14.738-7.121 27.351-15.49 34.498-.861.735-1.97 1.094-3.102 1.094H63.609z" fill="#F1FAEE"/><path d="M118.429 64.767c-3.296-.35-41.91 0-41.91 0l7.535 4.74h30.48c3.895 0 7.192 0 7.192 5.404 0 3.705-4.795 11.493-7.192 14.924-5.052 5.55-14.47 5.2-23.76 2.069l-2.011 4.18c13.185 4.546 25.771 1.399 29.666-3.649 3.297-4.67 9.889-15.27 9.889-20.313 0-5.043-6.592-7.005-9.889-7.355z" fill="#F1FAEE"/></svg>