<svg width="157" height="157" fill="none" xmlns="http://www.w3.org/2000/svg"><circle cx="78.5" cy="78.5" r="78.5" fill="#E63946"/><path fill-rule="evenodd" clip-rule="evenodd" d="M49 33c-8.284 0-15 6.716-15 15v60c0 8.284 6.716 15 15 15h60c8.284 0 15-6.716 15-15V48c0-8.284-6.716-15-15-15H49zm7.164 32.239c5.564 0 10.075-4.51 10.075-10.075 0-5.564-4.51-10.074-10.075-10.074-5.564 0-10.074 4.51-10.074 10.074S50.6 65.24 56.164 65.24zM79 88.075c5.564 0 10.075-4.51 10.075-10.075 0-5.564-4.51-10.075-10.075-10.075-5.564 0-10.075 4.51-10.075 10.075 0 5.564 4.511 10.075 10.075 10.075zm32.91 12.761c0 5.564-4.51 10.074-10.074 10.074s-10.075-4.51-10.075-10.074 4.51-10.075 10.075-10.075c5.564 0 10.074 4.51 10.074 10.075z" fill="#F1FAEE"/></svg>