<svg width="157" height="157" fill="none" xmlns="http://www.w3.org/2000/svg"><path d="M0 78.5C0 19.625 19.625 0 78.5 0S157 19.625 157 78.5 137.375 157 78.5 157 0 137.375 0 78.5z" fill="#E63946"/><path fill-rule="evenodd" clip-rule="evenodd" d="M114.263 89.11l4.261-50.634-50.634 4.261L82.152 57 42.488 96.663l3.57 3.57-3.57 3.57 3.57 3.569 3.57-3.569-3.57-3.57 10.71-10.71 7.139 7.14-7.14 7.14 3.57 3.569 7.14-7.139-3.57-3.57 3.57-3.57 3.57 3.57 7.139-7.14 3.57 3.57 3.57-3.57-3.57-3.57 7.139-7.139 3.57 3.57L100 74.848l14.262 14.262zm-32.508-3.156l-3.57 3.57-3.57-3.57 3.57-3.57 3.57 3.57zm-14.279 7.14l-3.57-3.57 3.57-3.57 3.57 3.57-3.57 3.57z" fill="#F1FAEE"/><path d="M53.197 114.512l3.57-3.57 3.57 3.57-3.57 3.57-3.57-3.57z" fill="#F1FAEE"/><path d="M46.058 114.512l3.57-3.57 3.57 3.57-3.57 3.57-3.57-3.57zM46.058 114.512l-3.57 3.57-3.57-3.57 3.57-3.57 3.57 3.57z" fill="#F1FAEE"/></svg>