<svg width="157" height="157" fill="none" xmlns="http://www.w3.org/2000/svg"><circle cx="78.5" cy="78.5" r="78.5" fill="#E63946"/><path fill-rule="evenodd" clip-rule="evenodd" d="M60.863 50.837c-.793 3.587-1.04 7.14-1.076 9.94H56.5c-5.119 0-9.357 3.964-9.682 9.056l-2.798 43.884C43.665 119.288 48.102 124 53.702 124h49.474c5.6 0 10.037-4.712 9.682-10.283l-2.799-43.884c-.324-5.092-4.563-9.056-9.682-9.056h-3.285c.031-2.86-.132-6.497-.85-10.154-.782-3.989-2.258-8.169-5.024-11.357-2.832-3.264-6.91-5.358-12.53-5.263-5.603.095-9.689 2.277-12.564 5.542-2.819 3.202-4.387 7.342-5.26 11.292zm27.532-9.138c-2.1-2.422-5.117-4.054-9.643-3.977-4.542.076-7.635 1.791-9.823 4.276-2.243 2.547-3.619 6.01-4.422 9.64-.718 3.248-.952 6.513-.988 9.139H93.36c.032-2.704-.122-6.09-.78-9.44-.72-3.677-2.018-7.141-4.185-9.638zm-6.261 44.238c.744.624 1.38 1.464 1.908 2.52l4.572-2.628c-.648-1.152-1.512-2.22-2.592-3.204-1.056-.984-2.52-1.632-4.392-1.944l.144-4.068H77.31l.144 4.032c-1.392.24-2.604.684-3.636 1.332s-1.836 1.44-2.412 2.376a5.427 5.427 0 00-.864 2.952c0 1.224.228 2.28.684 3.168a8.333 8.333 0 001.764 2.268c.72.6 1.464 1.104 2.232 1.512.792.384 1.5.696 2.124.936.984.384 1.872.744 2.664 1.08.792.336 1.416.72 1.872 1.152.456.432.684.984.684 1.656 0 1.656-1.032 2.484-3.096 2.484-1.32 0-2.448-.372-3.384-1.116-.936-.768-1.836-1.908-2.7-3.42l-4.32 3.024c.456.984 1.092 1.908 1.908 2.772.84.864 1.812 1.596 2.916 2.196 1.104.6 2.292 1.008 3.564 1.224l-.144 3.852h4.464l-.144-3.816c2.28-.312 4.068-1.092 5.364-2.34 1.32-1.248 1.98-2.892 1.98-4.932 0-1.464-.3-2.7-.9-3.708a7.57 7.57 0 00-2.34-2.52 13.146 13.146 0 00-3.168-1.62 116.475 116.475 0 00-2.844-1.044c-.864-.312-1.572-.684-2.124-1.116a2.185 2.185 0 01-.792-1.728c0-.648.216-1.188.648-1.62.456-.432 1.176-.648 2.16-.648.936 0 1.776.312 2.52.936z" fill="#F1FAEE"/></svg>