<svg width="157" height="157" fill="none" xmlns="http://www.w3.org/2000/svg"><circle cx="78.5" cy="78.5" r="78.5" fill="#E63946"/><path d="M35.31 118.514l31.746-31.747 2.588 2.589L35 124l.31-5.486z" fill="#F1FAEE"/><path d="M104.488 46.946a4.787 4.787 0 00-6.77 0L48.54 96.126a4.787 4.787 0 000 6.769l5.177 5.177a4.787 4.787 0 006.77 0L74.82 93.736 64.07 82.984l2.19-2.19L77.01 91.546l2.39-2.39-6.57-6.57 2.19-2.19 6.57 6.57 2.19-2.19-10.752-10.752 2.39-2.389L86.17 82.387l2.19-2.19-6.57-6.57 2.19-2.19 6.57 6.57 2.39-2.39-10.752-10.751 2.19-2.19L95.13 73.426l14.535-14.535a4.788 4.788 0 000-6.77l-5.177-5.176z" fill="#F1FAEE"/><path d="M92.442 38.285a2.393 2.393 0 013.385 0l22.499 22.499a2.395 2.395 0 01-3.385 3.385l-22.499-22.5a2.394 2.394 0 010-3.384zM107.574 34.701a2.394 2.394 0 013.385 0l10.951 10.95a2.395 2.395 0 01-3.385 3.386l-10.951-10.951a2.393 2.393 0 010-3.385z" fill="#F1FAEE"/><path d="M112.452 39.778l4.381 4.38-7.567 7.567-4.38-4.38 7.566-7.567z" fill="#F1FAEE"/></svg>