<svg width="157" height="157" fill="none" xmlns="http://www.w3.org/2000/svg"><circle cx="78.5" cy="78.5" r="78.5" fill="#E63946"/><path d="M57.35 70.83h11.082l-11.61 14.776 12.27 15.567H58.01L51.744 92.4l-6.267 8.773H34l12.467-15.567L34.66 70.831h11.477l5.607 7.981 5.607-7.981z" fill="#F1FAEE"/><path d="M86.125 55h13.852L85.465 77.493l15.435 23.68H87.114L78.671 85.87l-8.707 15.303H56.178l15.831-23.68L57.827 55h13.786l7.19 13.39L86.125 55z" fill="#F1FAEE"/><path d="M112.259 70.83h11.081l-11.609 14.776L124 101.173h-11.082l-6.266-8.773-6.266 8.773H88.908l12.467-15.567-11.807-14.775h11.477l5.607 7.981 5.607-7.981z" fill="#F1FAEE"/></svg>